<?xml version="1.0" encoding="utf-8"?>
<!-- Generator: Adobe Illustrator 17.0.0, SVG Export Plug-In . SVG Version: 6.00 Build 0)  -->
<!DOCTYPE svg PUBLIC "-//W3C//DTD SVG 1.1//EN" "http://www.w3.org/Graphics/SVG/1.1/DTD/svg11.dtd">
<svg version="1.1" id="Layer_1" xmlns="http://www.w3.org/2000/svg" xmlns:xlink="http://www.w3.org/1999/xlink" x="0px" y="0px"
	 width="57.467px" height="77.749px" viewBox="0 0 57.467 77.749" enable-background="new 0 0 57.467 77.749" xml:space="preserve">
<path fill="#777777" d="M43.898,0H4.767C2.14,0,0,2.141,0,4.768v68.213c0,2.63,2.14,4.768,4.767,4.768h47.932
	c2.63,0,4.768-2.138,4.768-4.768V14.743L43.898,0z M45.023,7.135l5.948,6.463h-5.948V7.135z M53.463,72.98
	c0,0.421-0.344,0.765-0.765,0.765H4.767c-0.421,0-0.763-0.344-0.763-0.765V4.768c0-0.421,0.342-0.762,0.763-0.762h36.251v11.595
	c0,1.104,0.899,1.999,2.003,1.999h10.442C53.463,17.6,53.463,72.98,53.463,72.98z M11.067,21.295h34c0.828,0,1.5,0.672,1.5,1.5
	s-0.672,1.5-1.5,1.5h-34c-0.828,0-1.5-0.672-1.5-1.5S10.239,21.295,11.067,21.295z M46.567,32.875c0,0.828-0.672,1.5-1.5,1.5h-34
	c-0.828,0-1.5-0.672-1.5-1.5s0.672-1.5,1.5-1.5h34C45.895,31.375,46.567,32.047,46.567,32.875z M46.567,42.625
	c0,0.828-0.672,1.5-1.5,1.5h-34c-0.828,0-1.5-0.672-1.5-1.5s0.672-1.5,1.5-1.5h34C45.895,41.125,46.567,41.797,46.567,42.625z
	 M46.567,52.541c0,0.828-0.672,1.5-1.5,1.5h-34c-0.828,0-1.5-0.672-1.5-1.5s0.672-1.5,1.5-1.5h34
	C45.895,51.041,46.567,51.713,46.567,52.541z"/>
</svg>
