<?xml version="1.0" encoding="utf-8"?>
<!-- Generator: Adobe Illustrator 17.0.0, SVG Export Plug-In . SVG Version: 6.00 Build 0)  -->
<!DOCTYPE svg PUBLIC "-//W3C//DTD SVG 1.1//EN" "http://www.w3.org/Graphics/SVG/1.1/DTD/svg11.dtd">
<svg version="1.1" id="Layer_1" xmlns="http://www.w3.org/2000/svg" xmlns:xlink="http://www.w3.org/1999/xlink" x="0px" y="0px"
	 width="32px" height="32px" viewBox="0 0 32 32" enable-background="new 0 0 32 32" xml:space="preserve">
<g id="icomoon-ignore">
	<line fill="none" stroke="#449FDB" x1="0" y1="0" x2="0" y2="0"/>
</g>
<path fill="#777777" d="M27.879,5.879l-3.757-3.757c-1.167-1.167-3.471-2.121-5.121-2.121h-14c-1.65,0-3,1.35-3,3v26
	c0,1.65,1.35,3,3,3h22c1.65,0,3-1.35,3-3v-18C30.001,9.351,29.046,7.046,27.879,5.879L27.879,5.879z M20,4.236
	c0.069,0.025,0.139,0.053,0.211,0.082c0.564,0.234,0.956,0.505,1.082,0.631l3.757,3.757c0.126,0.126,0.397,0.517,0.631,1.082
	c0.03,0.072,0.057,0.143,0.082,0.211h-5.764V4.235L20,4.236z M26,28H6V4h12v8h8V28z M8,16h16v2H8V16z M8,20h16v2H8V20z M8,24h16v2H8
	V24z"/>
</svg>
